<svg width="48" xmlns="http://www.w3.org/2000/svg" height="48" id="screenshot-c19a0f4a-c023-80dc-8005-e8ae6ca36069" viewBox="2620.75 435 48 48" style="-webkit-print-color-adjust::exact" xmlns:xlink="http://www.w3.org/1999/xlink" fill="none" version="1.1">
  <g id="shape-c19a0f4a-c023-80dc-8005-e8ae6ca36069">
    <defs>
      <clipPath id="frame-clip-c19a0f4a-c023-80dc-8005-e8ae6ca36069-render-154" class="frame-clip frame-clip-def">
        <rect rx="24" ry="24" x="2620.749999738164" y="435.00000000000034" width="48" height="48" transform="matrix(1.000000, 0.000000, 0.000000, 1.000000, 0.000000, 0.000000)">
        </rect>
      </clipPath>
    </defs>
    <g>
      <g>
        <g clip-path="url(#frame-clip-c19a0f4a-c023-80dc-8005-e8ae6ca36069-render-154)" fill="none">
          <g class="fills" id="fills-c19a0f4a-c023-80dc-8005-e8ae6ca36069">
            <rect rx="24" ry="24" x="2620.749999738164" y="435.00000000000034" width="48" height="48" transform="matrix(1.000000, 0.000000, 0.000000, 1.000000, 0.000000, 0.000000)" class="frame-background" style="fill:#ffffff;fill-opacity:1">
            </rect>
          </g>
          <g class="frame-children">
            <g id="shape-c19a0f4a-c023-80dc-8005-e8ac9f18010c" rx="0" ry="0">
              <g id="shape-c19a0f4a-c023-80dc-8005-e8ac9f180114">
                <g class="fills" id="fills-c19a0f4a-c023-80dc-8005-e8ac9f180114">
                  <path d="M2655.713,450.516C2655.713,450.336,2655.708,450.156,2655.700,449.976C2655.691,449.796,2655.678,449.616,2655.660,449.436C2655.643,449.257,2655.621,449.078,2655.595,448.900C2655.569,448.721,2655.539,448.544,2655.504,448.367C2655.469,448.190,2655.430,448.014,2655.387,447.839C2655.344,447.665,2655.296,447.491,2655.245,447.318C2655.193,447.146,2655.137,446.975,2655.078,446.805C2655.018,446.635,2654.954,446.467,2654.886,446.300C2654.818,446.134,2654.746,445.969,2654.669,445.806C2654.593,445.643,2654.514,445.482,2654.430,445.323C2654.346,445.164,2654.258,445.007,2654.167,444.853C2654.075,444.698,2653.980,444.546,2653.882,444.396C2653.783,444.246,2653.680,444.099,2653.574,443.954C2653.469,443.809,2653.359,443.667,2653.246,443.528C2653.134,443.388,2653.017,443.252,2652.898,443.118C2652.779,442.985,2652.656,442.854,2652.530,442.727C2652.405,442.599,2652.276,442.475,2652.144,442.354C2652.012,442.233,2651.878,442.115,2651.740,442.001C2651.603,441.886,2651.463,441.775,2651.320,441.668C2651.177,441.561,2651.032,441.457,2650.884,441.357C2650.736,441.256,2650.586,441.160,2650.433,441.067C2650.281,440.975,2650.126,440.886,2649.969,440.801C2649.812,440.716,2649.654,440.635,2649.493,440.558C2649.332,440.481,2649.170,440.408,2649.005,440.339C2648.841,440.270,2648.675,440.205,2648.508,440.144C2648.340,440.083,2648.171,440.027,2648.001,439.974C2647.831,439.922,2647.660,439.874,2647.487,439.830C2647.315,439.786,2647.141,439.747,2646.967,439.712C2646.793,439.677,2646.617,439.646,2646.442,439.619C2646.266,439.593,2646.089,439.571,2645.912,439.553C2645.735,439.535,2645.558,439.522,2645.380,439.513C2645.203,439.504,2645.025,439.500,2644.847,439.500L2644.847,439.500C2644.669,439.500,2644.491,439.504,2644.314,439.513C2644.136,439.522,2643.959,439.535,2643.782,439.553C2643.605,439.571,2643.428,439.593,2643.252,439.619C2643.077,439.646,2642.901,439.677,2642.727,439.712C2642.553,439.747,2642.379,439.786,2642.207,439.830C2642.034,439.874,2641.863,439.922,2641.693,439.974C2641.523,440.027,2641.354,440.083,2641.186,440.144C2641.019,440.205,2640.853,440.270,2640.689,440.339C2640.524,440.408,2640.362,440.481,2640.201,440.558C2640.041,440.635,2639.882,440.716,2639.725,440.801C2639.568,440.886,2639.413,440.975,2639.261,441.067C2639.108,441.160,2638.958,441.256,2638.810,441.357C2638.663,441.457,2638.517,441.561,2638.374,441.668C2638.231,441.775,2638.091,441.886,2637.954,442.001C2637.816,442.115,2637.682,442.233,2637.550,442.354C2637.418,442.475,2637.290,442.599,2637.164,442.727C2637.038,442.854,2636.915,442.985,2636.796,443.118C2636.677,443.252,2636.560,443.388,2636.448,443.528C2636.335,443.667,2636.225,443.809,2636.120,443.954C2636.014,444.099,2635.911,444.246,2635.813,444.396C2635.714,444.546,2635.619,444.698,2635.527,444.853C2635.436,445.007,2635.348,445.164,2635.264,445.323C2635.180,445.482,2635.101,445.643,2635.025,445.806C2634.949,445.969,2634.877,446.134,2634.808,446.300C2634.740,446.467,2634.676,446.635,2634.616,446.805C2634.557,446.975,2634.501,447.146,2634.449,447.318C2634.398,447.491,2634.350,447.665,2634.307,447.839C2634.264,448.014,2634.225,448.190,2634.190,448.367C2634.155,448.544,2634.125,448.721,2634.099,448.900C2634.073,449.078,2634.051,449.257,2634.034,449.436C2634.016,449.616,2634.003,449.796,2633.994,449.976C2633.986,450.156,2633.981,450.336,2633.981,450.516L2633.981,451.730C2633.948,451.735,2633.914,451.742,2633.881,451.749C2633.848,451.756,2633.815,451.764,2633.782,451.773C2633.749,451.782,2633.716,451.791,2633.684,451.801C2633.651,451.812,2633.619,451.822,2633.587,451.834C2633.555,451.846,2633.523,451.858,2633.491,451.871C2633.460,451.884,2633.428,451.898,2633.398,451.912C2633.367,451.927,2633.336,451.942,2633.306,451.957C2633.275,451.973,2633.246,451.990,2633.216,452.007C2633.186,452.024,2633.157,452.042,2633.128,452.060C2633.100,452.078,2633.071,452.097,2633.043,452.117C2633.015,452.137,2632.988,452.157,2632.961,452.178C2632.934,452.199,2632.907,452.220,2632.881,452.242C2632.854,452.264,2632.829,452.287,2632.804,452.310C2632.778,452.333,2632.754,452.357,2632.730,452.381C2632.705,452.406,2632.682,452.431,2632.659,452.456C2632.636,452.481,2632.613,452.507,2632.591,452.533C2632.569,452.560,2632.548,452.587,2632.527,452.614C2632.506,452.641,2632.486,452.669,2632.466,452.697C2632.447,452.725,2632.428,452.754,2632.409,452.783C2632.391,452.812,2632.373,452.842,2632.356,452.871C2632.339,452.901,2632.323,452.932,2632.307,452.962C2632.291,452.993,2632.276,453.024,2632.261,453.055C2632.247,453.086,2632.233,453.118,2632.220,453.149C2632.207,453.181,2632.195,453.213,2632.183,453.246C2632.171,453.278,2632.160,453.311,2632.150,453.344C2632.140,453.377,2632.130,453.410,2632.121,453.443C2632.112,453.477,2632.104,453.510,2632.097,453.544C2632.089,453.577,2632.083,453.611,2632.077,453.645C2632.071,453.679,2632.066,453.713,2632.061,453.748C2632.057,453.782,2632.053,453.816,2632.050,453.850C2632.047,453.885,2632.045,453.919,2632.043,453.954C2632.042,453.988,2632.041,454.023,2632.041,454.057L2632.041,456.812C2632.041,456.847,2632.042,456.882,2632.043,456.917C2632.045,456.952,2632.047,456.987,2632.050,457.022C2632.053,457.057,2632.057,457.092,2632.062,457.127C2632.067,457.162,2632.072,457.197,2632.078,457.231C2632.084,457.266,2632.091,457.300,2632.099,457.335C2632.106,457.369,2632.115,457.403,2632.124,457.437C2632.133,457.471,2632.143,457.504,2632.154,457.538C2632.165,457.571,2632.176,457.604,2632.188,457.637C2632.200,457.670,2632.213,457.703,2632.227,457.735C2632.240,457.768,2632.255,457.800,2632.270,457.831C2632.284,457.863,2632.300,457.894,2632.317,457.925C2632.333,457.956,2632.350,457.987,2632.368,458.017C2632.385,458.048,2632.404,458.077,2632.423,458.107C2632.442,458.136,2632.461,458.165,2632.482,458.194C2632.502,458.222,2632.523,458.250,2632.545,458.278C2632.566,458.305,2632.588,458.332,2632.611,458.359C2632.634,458.385,2632.657,458.411,2632.681,458.437C2632.705,458.462,2632.729,458.487,2632.754,458.512C2632.779,458.536,2632.805,458.560,2632.831,458.583C2632.857,458.606,2632.883,458.629,2632.910,458.651C2632.937,458.673,2632.965,458.694,2632.993,458.715C2633.021,458.736,2633.049,458.756,2633.078,458.776C2633.107,458.795,2633.136,458.814,2633.166,458.832C2633.195,458.850,2633.225,458.868,2633.256,458.885C2633.286,458.901,2633.317,458.918,2633.348,458.933C2633.379,458.948,2633.411,458.963,2633.443,458.977C2633.475,458.991,2633.507,459.004,2633.539,459.017C2633.571,459.029,2633.604,459.041,2633.637,459.052C2633.670,459.063,2633.703,459.074,2633.736,459.083C2633.770,459.093,2633.803,459.102,2633.837,459.110C2633.871,459.118,2633.905,459.125,2633.939,459.131C2633.973,459.138,2634.007,459.144,2634.041,459.149C2634.054,459.265,2634.067,459.382,2634.083,459.498C2634.099,459.614,2634.117,459.730,2634.136,459.846C2634.156,459.962,2634.177,460.077,2634.200,460.192C2634.223,460.307,2634.248,460.422,2634.275,460.536C2634.302,460.650,2634.330,460.764,2634.361,460.877C2634.391,460.990,2634.423,461.103,2634.457,461.215C2634.491,461.328,2634.526,461.439,2634.564,461.550C2634.601,461.661,2634.640,461.772,2634.681,461.882C2634.722,461.991,2634.765,462.101,2634.809,462.209C2634.853,462.317,2634.899,462.425,2634.947,462.532C2634.995,462.639,2635.044,462.745,2635.095,462.850C2635.146,462.956,2635.199,463.060,2635.253,463.164C2635.308,463.268,2635.363,463.370,2635.421,463.472C2635.479,463.574,2635.538,463.675,2635.599,463.775C2635.659,463.875,2635.722,463.973,2635.786,464.071C2635.850,464.169,2635.915,464.266,2635.982,464.362C2636.049,464.458,2636.117,464.552,2636.187,464.646C2636.257,464.739,2636.328,464.832,2636.401,464.923C2636.474,465.014,2636.548,465.104,2636.624,465.193C2636.700,465.282,2636.777,465.369,2636.855,465.456C2636.934,465.542,2637.013,465.627,2637.095,465.711C2637.176,465.795,2637.258,465.877,2637.342,465.958C2637.425,466.039,2637.510,466.119,2637.597,466.197C2637.683,466.275,2637.770,466.352,2637.859,466.428C2637.948,466.503,2638.037,466.577,2638.128,466.650C2638.219,466.722,2638.311,466.794,2638.405,466.863C2638.498,466.933,2638.592,467.001,2638.688,467.067C2638.783,467.134,2638.879,467.199,2638.977,467.262C2639.074,467.326,2639.172,467.387,2639.272,467.448C2639.371,467.508,2639.472,467.566,2639.573,467.623C2639.674,467.680,2639.776,467.736,2639.879,467.789C2639.982,467.843,2640.086,467.895,2640.190,467.945L2640.190,471.566L2633.302,471.566C2633.173,471.566,2633.045,471.569,2632.917,471.575C2632.788,471.582,2632.660,471.591,2632.532,471.604C2632.404,471.617,2632.276,471.633,2632.149,471.652C2632.022,471.671,2631.895,471.693,2631.769,471.719C2631.643,471.744,2631.517,471.773,2631.393,471.804C2631.268,471.836,2631.144,471.871,2631.021,471.909C2630.898,471.946,2630.776,471.987,2630.655,472.031C2630.534,472.075,2630.414,472.122,2630.295,472.172C2630.176,472.222,2630.059,472.275,2629.942,472.330C2629.826,472.386,2629.711,472.445,2629.598,472.506C2629.484,472.568,2629.372,472.632,2629.262,472.699C2629.152,472.766,2629.043,472.836,2628.936,472.908C2628.829,472.981,2628.724,473.056,2628.621,473.133C2628.518,473.211,2628.416,473.291,2628.317,473.374C2628.218,473.457,2628.120,473.542,2628.025,473.629C2627.930,473.717,2627.837,473.807,2627.746,473.899C2627.655,473.991,2627.566,474.086,2627.480,474.182C2627.393,474.279,2627.309,474.378,2627.228,474.478C2627.146,474.579,2627.067,474.682,2626.990,474.787C2626.914,474.891,2626.840,474.998,2626.768,475.106C2626.697,475.215,2626.628,475.325,2626.562,475.437C2626.496,475.549,2626.433,475.662,2626.372,475.777C2626.311,475.892,2626.253,476.008,2626.198,476.126C2626.143,476.244,2626.091,476.363,2626.042,476.484C2625.993,476.604,2625.947,476.726,2625.903,476.849C2625.860,476.971,2625.820,477.095,2625.782,477.220C2625.745,477.345,2625.711,477.470,2625.680,477.597C2625.648,477.723,2625.620,477.850,2625.595,477.978C2625.570,478.106,2625.548,478.235,2625.529,478.364C2625.510,478.493,2625.494,478.622,2625.482,478.752C2625.469,478.881,2625.460,479.011,2625.454,479.142C2625.447,479.272,2625.444,479.402,2625.444,479.533L2625.444,487.500L2664.250,487.500L2664.250,479.533C2664.250,479.402,2664.247,479.272,2664.241,479.142C2664.234,479.011,2664.225,478.881,2664.212,478.752C2664.200,478.622,2664.184,478.493,2664.165,478.364C2664.146,478.235,2664.124,478.106,2664.099,477.978C2664.074,477.850,2664.046,477.723,2664.015,477.597C2663.983,477.470,2663.949,477.345,2663.912,477.220C2663.874,477.095,2663.834,476.971,2663.791,476.849C2663.747,476.726,2663.701,476.604,2663.652,476.484C2663.603,476.363,2663.551,476.244,2663.496,476.126C2663.441,476.008,2663.383,475.892,2663.322,475.777C2663.262,475.662,2663.198,475.549,2663.132,475.437C2663.066,475.325,2662.997,475.215,2662.926,475.106C2662.854,474.998,2662.780,474.891,2662.704,474.787C2662.627,474.682,2662.548,474.579,2662.466,474.478C2662.385,474.378,2662.301,474.279,2662.214,474.182C2662.128,474.086,2662.039,473.991,2661.948,473.899C2661.858,473.807,2661.764,473.717,2661.669,473.629C2661.574,473.542,2661.476,473.457,2661.377,473.374C2661.278,473.291,2661.176,473.211,2661.073,473.133C2660.970,473.056,2660.865,472.981,2660.758,472.908C2660.651,472.836,2660.542,472.766,2660.432,472.699C2660.322,472.632,2660.210,472.568,2660.096,472.506C2659.983,472.445,2659.868,472.386,2659.752,472.330C2659.635,472.275,2659.518,472.222,2659.399,472.172C2659.280,472.122,2659.160,472.075,2659.039,472.031C2658.918,471.987,2658.796,471.946,2658.673,471.909C2658.550,471.871,2658.426,471.836,2658.301,471.804C2658.177,471.773,2658.051,471.744,2657.925,471.719C2657.799,471.693,2657.672,471.671,2657.545,471.652C2657.418,471.633,2657.290,471.617,2657.162,471.604C2657.034,471.591,2656.906,471.582,2656.778,471.575C2656.649,471.569,2656.521,471.566,2656.392,471.566L2649.504,471.566L2649.504,467.945C2649.608,467.895,2649.712,467.843,2649.815,467.789C2649.918,467.736,2650.020,467.680,2650.121,467.623C2650.223,467.566,2650.323,467.508,2650.422,467.448C2650.522,467.387,2650.620,467.326,2650.717,467.262C2650.815,467.199,2650.911,467.134,2651.006,467.067C2651.102,467.001,2651.196,466.933,2651.289,466.863C2651.383,466.794,2651.475,466.722,2651.566,466.650C2651.657,466.577,2651.746,466.503,2651.835,466.428C2651.924,466.352,2652.011,466.275,2652.097,466.197C2652.184,466.119,2652.269,466.039,2652.352,465.958C2652.436,465.877,2652.518,465.795,2652.600,465.711C2652.681,465.627,2652.760,465.542,2652.839,465.456C2652.917,465.369,2652.994,465.282,2653.070,465.193C2653.146,465.104,2653.220,465.014,2653.293,464.923C2653.366,464.832,2653.437,464.739,2653.507,464.646C2653.577,464.552,2653.645,464.458,2653.712,464.362C2653.779,464.266,2653.845,464.169,2653.908,464.071C2653.972,463.973,2654.035,463.875,2654.095,463.775C2654.156,463.675,2654.215,463.574,2654.273,463.472C2654.330,463.370,2654.386,463.268,2654.441,463.164C2654.495,463.060,2654.548,462.956,2654.599,462.850C2654.650,462.745,2654.699,462.639,2654.747,462.532C2654.795,462.425,2654.841,462.317,2654.885,462.209C2654.929,462.101,2654.972,461.991,2655.013,461.882C2655.054,461.772,2655.093,461.661,2655.130,461.550C2655.168,461.439,2655.203,461.328,2655.237,461.215C2655.271,461.103,2655.303,460.990,2655.333,460.877C2655.364,460.764,2655.392,460.650,2655.419,460.536C2655.446,460.422,2655.471,460.307,2655.494,460.192C2655.517,460.077,2655.538,459.962,2655.558,459.846C2655.577,459.730,2655.595,459.614,2655.611,459.498C2655.626,459.382,2655.640,459.265,2655.653,459.149C2655.687,459.144,2655.721,459.138,2655.755,459.131C2655.789,459.125,2655.823,459.118,2655.857,459.110C2655.891,459.102,2655.924,459.093,2655.958,459.083C2655.991,459.074,2656.024,459.063,2656.057,459.052C2656.090,459.041,2656.123,459.029,2656.155,459.017C2656.187,459.004,2656.220,458.991,2656.251,458.977C2656.283,458.963,2656.315,458.948,2656.346,458.933C2656.377,458.918,2656.408,458.901,2656.438,458.885C2656.469,458.868,2656.499,458.850,2656.528,458.832C2656.558,458.814,2656.587,458.795,2656.616,458.776C2656.645,458.756,2656.673,458.736,2656.701,458.715C2656.729,458.694,2656.757,458.673,2656.784,458.651C2656.811,458.629,2656.837,458.606,2656.863,458.583C2656.890,458.560,2656.915,458.536,2656.940,458.512C2656.965,458.487,2656.989,458.462,2657.013,458.437C2657.037,458.411,2657.060,458.385,2657.083,458.359C2657.106,458.332,2657.128,458.305,2657.150,458.278C2657.171,458.250,2657.192,458.222,2657.212,458.194C2657.233,458.165,2657.252,458.136,2657.271,458.107C2657.290,458.077,2657.309,458.048,2657.326,458.017C2657.344,457.987,2657.361,457.956,2657.378,457.925C2657.394,457.894,2657.410,457.863,2657.425,457.831C2657.439,457.800,2657.454,457.768,2657.467,457.735C2657.481,457.703,2657.494,457.670,2657.506,457.637C2657.518,457.604,2657.529,457.571,2657.540,457.538C2657.551,457.504,2657.561,457.471,2657.570,457.437C2657.579,457.403,2657.587,457.369,2657.595,457.335C2657.603,457.300,2657.610,457.266,2657.616,457.231C2657.622,457.197,2657.627,457.162,2657.632,457.127C2657.637,457.092,2657.641,457.057,2657.644,457.022C2657.647,456.987,2657.649,456.952,2657.651,456.917C2657.652,456.882,2657.653,456.847,2657.653,456.812L2657.653,454.057C2657.653,454.023,2657.652,453.988,2657.651,453.954C2657.649,453.919,2657.647,453.885,2657.644,453.850C2657.641,453.816,2657.637,453.782,2657.633,453.748C2657.628,453.713,2657.623,453.679,2657.617,453.645C2657.611,453.611,2657.605,453.577,2657.597,453.544C2657.590,453.510,2657.582,453.477,2657.573,453.443C2657.564,453.410,2657.554,453.377,2657.544,453.344C2657.534,453.311,2657.523,453.278,2657.511,453.246C2657.499,453.213,2657.487,453.181,2657.474,453.149C2657.461,453.118,2657.447,453.086,2657.433,453.055C2657.418,453.024,2657.403,452.993,2657.387,452.962C2657.371,452.932,2657.355,452.901,2657.338,452.871C2657.321,452.842,2657.303,452.812,2657.285,452.783C2657.266,452.754,2657.247,452.725,2657.228,452.697C2657.208,452.669,2657.188,452.641,2657.167,452.614C2657.146,452.587,2657.125,452.560,2657.103,452.533C2657.081,452.507,2657.058,452.481,2657.035,452.456C2657.012,452.431,2656.989,452.406,2656.964,452.381C2656.940,452.357,2656.916,452.333,2656.890,452.310C2656.865,452.287,2656.840,452.264,2656.813,452.242C2656.787,452.220,2656.761,452.199,2656.733,452.178C2656.706,452.157,2656.679,452.137,2656.651,452.117C2656.623,452.097,2656.594,452.078,2656.566,452.060C2656.537,452.042,2656.508,452.024,2656.478,452.007C2656.448,451.990,2656.419,451.973,2656.388,451.957C2656.358,451.942,2656.327,451.927,2656.296,451.912C2656.266,451.898,2656.234,451.884,2656.203,451.871C2656.171,451.858,2656.139,451.846,2656.107,451.834C2656.075,451.822,2656.043,451.812,2656.011,451.801C2655.978,451.791,2655.945,451.782,2655.912,451.773C2655.879,451.764,2655.846,451.756,2655.813,451.749C2655.780,451.742,2655.746,451.735,2655.713,451.730L2655.713,450.516ZZZZZZZ" fill-rule="evenodd" stroke="none" style="fill:#614335;fill-opacity:1">
                  </path>
                </g>
              </g>
              <g id="shape-c19a0f4a-c023-80dc-8005-e8ac9f18011a">
                <g class="fills" id="fills-c19a0f4a-c023-80dc-8005-e8ac9f18011a">
                  <path d="M2649.892,454.451C2649.249,454.451,2648.728,453.922,2648.728,453.270C2648.728,452.619,2649.249,452.090,2649.892,452.090C2650.535,452.090,2651.056,452.619,2651.056,453.270C2651.056,453.922,2650.535,454.451,2649.892,454.451ZZZZZZZ" fill-rule="evenodd" stroke="none" style="fill:#000000;fill-opacity:0.6">
                  </path>
                </g>
              </g>
              <g id="shape-c19a0f4a-c023-80dc-8005-e8ac9f18011b">
                <g class="fills" id="fills-c19a0f4a-c023-80dc-8005-e8ac9f18011b">
                  <path d="M2639.802,454.451C2639.159,454.451,2638.638,453.922,2638.638,453.270C2638.638,452.619,2639.159,452.090,2639.802,452.090C2640.445,452.090,2640.966,452.619,2640.966,453.270C2640.966,453.922,2640.445,454.451,2639.802,454.451ZZZZZZZ" fill-rule="evenodd" stroke="none" style="fill:#000000;fill-opacity:0.6">
                  </path>
                </g>
              </g>
              <g id="shape-c19a0f4a-c023-80dc-8005-e8ac9f180115">
                <g class="fills" id="fills-c19a0f4a-c023-80dc-8005-e8ac9f180115">
                  <path d="M2655.564,458.426L2655.564,460.000C2655.564,460.181,2655.559,460.361,2655.551,460.541C2655.542,460.721,2655.529,460.901,2655.512,461.080C2655.494,461.259,2655.472,461.438,2655.446,461.617C2655.420,461.795,2655.390,461.973,2655.355,462.149C2655.320,462.326,2655.281,462.502,2655.238,462.677C2655.195,462.852,2655.148,463.026,2655.096,463.198C2655.044,463.371,2654.989,463.542,2654.929,463.711C2654.869,463.881,2654.805,464.049,2654.737,464.216C2654.669,464.383,2654.597,464.547,2654.521,464.710C2654.445,464.873,2654.365,465.034,2654.281,465.193C2654.197,465.352,2654.109,465.509,2654.018,465.664C2653.927,465.818,2653.831,465.971,2653.733,466.120C2653.634,466.270,2653.531,466.418,2653.426,466.563C2653.320,466.707,2653.210,466.850,2653.097,466.989C2652.985,467.128,2652.869,467.265,2652.749,467.398C2652.630,467.532,2652.507,467.662,2652.381,467.790C2652.256,467.917,2652.127,468.042,2651.995,468.163C2651.863,468.284,2651.729,468.402,2651.591,468.516C2651.454,468.630,2651.314,468.741,2651.171,468.849C2651.028,468.956,2650.883,469.060,2650.735,469.160C2650.587,469.260,2650.437,469.356,2650.284,469.449C2650.132,469.542,2649.977,469.631,2649.820,469.716C2649.663,469.801,2649.505,469.882,2649.344,469.959C2649.183,470.036,2649.021,470.109,2648.856,470.178C2648.692,470.247,2648.526,470.312,2648.359,470.373C2648.191,470.433,2648.023,470.490,2647.852,470.542C2647.682,470.594,2647.511,470.643,2647.338,470.686C2647.166,470.730,2646.993,470.770,2646.818,470.805C2646.644,470.840,2646.469,470.871,2646.293,470.897C2646.117,470.924,2645.940,470.946,2645.763,470.963C2645.586,470.981,2645.409,470.994,2645.231,471.003C2645.054,471.012,2644.876,471.016,2644.698,471.016L2644.698,471.016C2644.520,471.016,2644.342,471.012,2644.165,471.003C2643.987,470.994,2643.810,470.981,2643.633,470.963C2643.456,470.946,2643.280,470.924,2643.104,470.897C2642.928,470.871,2642.753,470.840,2642.578,470.805C2642.404,470.770,2642.230,470.730,2642.058,470.686C2641.885,470.643,2641.714,470.594,2641.544,470.542C2641.374,470.490,2641.205,470.433,2641.038,470.373C2640.870,470.312,2640.704,470.247,2640.540,470.178C2640.376,470.109,2640.213,470.036,2640.052,469.959C2639.892,469.882,2639.733,469.801,2639.576,469.716C2639.419,469.631,2639.265,469.542,2639.112,469.449C2638.960,469.356,2638.809,469.260,2638.661,469.160C2638.514,469.060,2638.368,468.956,2638.225,468.849C2638.083,468.741,2637.942,468.630,2637.805,468.516C2637.668,468.402,2637.533,468.284,2637.401,468.163C2637.269,468.042,2637.141,467.917,2637.015,467.790C2636.889,467.662,2636.767,467.532,2636.647,467.398C2636.528,467.265,2636.412,467.128,2636.299,466.989C2636.186,466.850,2636.077,466.707,2635.971,466.563C2635.865,466.418,2635.762,466.270,2635.664,466.120C2635.565,465.971,2635.470,465.818,2635.378,465.664C2635.287,465.509,2635.199,465.352,2635.115,465.193C2635.032,465.034,2634.952,464.873,2634.876,464.710C2634.800,464.547,2634.728,464.383,2634.660,464.216C2634.592,464.049,2634.528,463.881,2634.468,463.711C2634.408,463.542,2634.352,463.371,2634.300,463.198C2634.249,463.026,2634.201,462.852,2634.158,462.677C2634.115,462.502,2634.076,462.326,2634.041,462.149C2634.007,461.973,2633.976,461.795,2633.950,461.617C2633.924,461.438,2633.902,461.259,2633.885,461.080C2633.867,460.901,2633.854,460.721,2633.845,460.541C2633.837,460.361,2633.832,460.181,2633.832,460.000L2633.832,458.426C2633.832,458.607,2633.837,458.787,2633.845,458.967C2633.854,459.147,2633.867,459.327,2633.885,459.506C2633.902,459.686,2633.924,459.865,2633.950,460.043C2633.976,460.221,2634.007,460.399,2634.041,460.576C2634.076,460.752,2634.115,460.928,2634.158,461.103C2634.201,461.278,2634.249,461.452,2634.300,461.624C2634.352,461.797,2634.408,461.968,2634.468,462.138C2634.528,462.307,2634.592,462.476,2634.660,462.642C2634.728,462.809,2634.800,462.974,2634.876,463.137C2634.952,463.299,2635.032,463.460,2635.115,463.620C2635.199,463.778,2635.287,463.935,2635.378,464.090C2635.470,464.245,2635.565,464.397,2635.664,464.547C2635.762,464.697,2635.865,464.844,2635.971,464.989C2636.077,465.134,2636.186,465.276,2636.299,465.415C2636.412,465.554,2636.528,465.691,2636.647,465.825C2636.767,465.958,2636.889,466.089,2637.015,466.216C2637.141,466.344,2637.269,466.468,2637.401,466.589C2637.533,466.710,2637.668,466.828,2637.805,466.942C2637.942,467.057,2638.083,467.167,2638.225,467.275C2638.368,467.382,2638.514,467.486,2638.661,467.586C2638.809,467.686,2638.960,467.783,2639.112,467.875C2639.265,467.968,2639.419,468.057,2639.576,468.142C2639.733,468.227,2639.892,468.308,2640.052,468.385C2640.213,468.462,2640.376,468.535,2640.540,468.604C2640.704,468.673,2640.870,468.738,2641.038,468.799C2641.205,468.860,2641.374,468.916,2641.544,468.968C2641.714,469.021,2641.885,469.069,2642.058,469.113C2642.230,469.156,2642.404,469.196,2642.578,469.231C2642.753,469.266,2642.928,469.297,2643.104,469.323C2643.280,469.350,2643.456,469.372,2643.633,469.390C2643.810,469.407,2643.987,469.421,2644.165,469.430C2644.342,469.438,2644.520,469.443,2644.698,469.443L2644.698,469.443C2644.876,469.443,2645.054,469.438,2645.231,469.430C2645.409,469.421,2645.586,469.407,2645.763,469.390C2645.940,469.372,2646.117,469.350,2646.293,469.323C2646.469,469.297,2646.644,469.266,2646.818,469.231C2646.993,469.196,2647.166,469.156,2647.338,469.113C2647.511,469.069,2647.682,469.021,2647.852,468.968C2648.023,468.916,2648.191,468.860,2648.359,468.799C2648.526,468.738,2648.692,468.673,2648.856,468.604C2649.021,468.535,2649.183,468.462,2649.344,468.385C2649.505,468.308,2649.663,468.227,2649.820,468.142C2649.977,468.057,2650.132,467.968,2650.284,467.875C2650.437,467.783,2650.587,467.686,2650.735,467.586C2650.883,467.486,2651.028,467.382,2651.171,467.275C2651.314,467.167,2651.454,467.057,2651.591,466.942C2651.729,466.828,2651.863,466.710,2651.995,466.589C2652.127,466.468,2652.256,466.344,2652.381,466.216C2652.507,466.089,2652.630,465.958,2652.749,465.825C2652.869,465.691,2652.985,465.554,2653.097,465.415C2653.210,465.276,2653.320,465.134,2653.426,464.989C2653.531,464.844,2653.634,464.697,2653.733,464.547C2653.831,464.397,2653.927,464.245,2654.018,464.090C2654.109,463.935,2654.197,463.778,2654.281,463.620C2654.365,463.460,2654.445,463.299,2654.521,463.137C2654.597,462.974,2654.669,462.809,2654.737,462.642C2654.805,462.476,2654.869,462.307,2654.929,462.138C2654.989,461.968,2655.044,461.797,2655.096,461.624C2655.148,461.452,2655.195,461.278,2655.238,461.103C2655.281,460.928,2655.320,460.752,2655.355,460.576C2655.390,460.399,2655.420,460.221,2655.446,460.043C2655.472,459.865,2655.494,459.686,2655.512,459.506C2655.529,459.327,2655.542,459.147,2655.551,458.967C2655.559,458.787,2655.564,458.607,2655.564,458.426ZZZZZZZ" fill-rule="evenodd" stroke="none" style="fill:#000000;fill-opacity:0.101960786">
                  </path>
                </g>
              </g>
              <g id="shape-c19a0f4a-c023-80dc-8005-e8ac9f18011c">
                <g class="fills" id="fills-c19a0f4a-c023-80dc-8005-e8ac9f18011c">
                  <path d="M2644.749,464.059C2646.983,464.133,2647.979,465.216,2648.729,464.116C2649.293,463.290,2649.057,461.901,2648.531,461.120C2647.782,460.008,2646.766,460.546,2645.630,460.419C2645.322,460.385,2645.011,460.298,2644.749,460.156C2644.487,460.298,2644.177,460.385,2643.868,460.419C2642.732,460.546,2641.716,460.008,2640.968,461.120C2640.441,461.901,2640.206,463.290,2640.769,464.116C2641.519,465.216,2642.516,463.985,2644.749,464.059ZZZZZZZM2633.905,450.713C2634.570,453.482,2634.875,456.307,2635.357,459.107C2635.457,459.691,2635.567,460.273,2635.684,460.854C2635.709,460.976,2635.733,461.429,2635.851,461.486C2636.210,461.660,2636.942,460.735,2637.138,460.527C2637.630,460.002,2638.117,459.473,2638.716,459.061C2639.925,458.230,2641.342,457.738,2642.815,457.622C2643.432,457.573,2644.266,457.658,2644.847,458.014C2645.428,457.658,2646.262,457.573,2646.879,457.622C2648.352,457.738,2649.769,458.230,2650.978,459.061C2651.577,459.473,2652.064,460.002,2652.556,460.527C2652.752,460.735,2653.484,461.660,2653.843,461.486C2653.961,461.429,2653.985,460.976,2654.010,460.854C2654.127,460.273,2654.237,459.691,2654.337,459.107C2654.819,456.307,2655.124,453.482,2655.789,450.713C2655.982,450.713,2656.151,454.401,2656.173,454.745C2656.261,456.140,2656.363,457.505,2656.232,458.902C2656.006,461.311,2655.771,464.333,2653.960,466.173C2652.324,467.836,2649.948,468.183,2647.899,469.233C2647.635,469.368,2647.285,469.535,2646.908,469.671C2646.510,469.979,2645.722,470.189,2644.813,470.189C2643.860,470.189,2643.040,469.958,2642.663,469.626C2642.333,469.499,2642.030,469.353,2641.795,469.233C2639.746,468.183,2637.370,467.836,2635.734,466.173C2633.923,464.333,2633.688,461.311,2633.462,458.902C2633.331,457.505,2633.433,456.140,2633.521,454.745C2633.543,454.401,2633.712,450.713,2633.905,450.713ZZZZZZZ" fill-rule="evenodd" stroke="none" style="fill:#252e32;fill-opacity:1">
                  </path>
                </g>
              </g>
              <g id="shape-c19a0f4a-c023-80dc-8005-e8ac9f18011e">
                <defs>
                  <filter y="350.5032786889136" data-old-width="1467.5641791044127" filterUnits="userSpaceOnUse" y1="350.5032786889136" width="1467.5641791044127" data-old-x="1313.5499997403367" id="render-161-filter_2" data-old-height="1176.550819672138" x="1313.5499997403367" x1="1313.5499997403367" y2="1527.0540983610517" data-old-y="350.5032786889136" x2="2781.1141788447494" height="1176.550819672138" color-interpolation-filters="sRGB">
                    <feFlood flood-opacity="0" result="BackgroundImageFix">
                    </feFlood>
                    <feColorMatrix in="SourceAlpha" type="matrix" values="0 0 0 0 0 0 0 0 0 0 0 0 0 0 0 0 0 0 127 0">
                    </feColorMatrix>
                    <feOffset dx="0" dy="2">
                    </feOffset>
                    <feGaussianBlur stdDeviation="0">
                    </feGaussianBlur>
                    <feColorMatrix type="matrix" values="0 0 0 0 0 0 0 0 0 0 0 0 0 0 0 0 0 0 0.101960786 0">
                    </feColorMatrix>
                    <feBlend mode="normal" in2="BackgroundImageFix" result="effect0_dropShadow">
                    </feBlend>
                    <feBlend mode="normal" in="SourceGraphic" in2="effect0_dropShadow" result="shape">
                    </feBlend>
                  </filter>
                </defs>
                <g class="fills" id="fills-c19a0f4a-c023-80dc-8005-e8ac9f18011e">
                  <path d="M2651.056,458.582C2653.628,458.582,2655.713,456.468,2655.713,453.861C2655.713,453.382,2655.642,452.919,2655.511,452.484L2656.780,452.484C2656.796,452.484,2656.812,452.483,2656.828,452.481C2656.843,452.480,2656.859,452.477,2656.875,452.474C2656.890,452.471,2656.906,452.467,2656.921,452.462C2656.936,452.458,2656.951,452.452,2656.966,452.446C2656.980,452.440,2656.995,452.433,2657.009,452.426C2657.023,452.418,2657.036,452.410,2657.049,452.401C2657.063,452.392,2657.075,452.382,2657.088,452.372C2657.100,452.362,2657.112,452.351,2657.123,452.340C2657.134,452.328,2657.145,452.316,2657.155,452.304C2657.165,452.291,2657.174,452.279,2657.183,452.265C2657.192,452.252,2657.200,452.238,2657.208,452.224C2657.215,452.210,2657.222,452.195,2657.228,452.180C2657.234,452.165,2657.239,452.150,2657.244,452.135C2657.249,452.119,2657.253,452.104,2657.256,452.088C2657.259,452.072,2657.261,452.056,2657.263,452.040C2657.264,452.024,2657.265,452.008,2657.265,451.992L2657.265,451.992C2657.265,451.976,2657.264,451.959,2657.263,451.943C2657.261,451.927,2657.259,451.911,2657.256,451.896C2657.253,451.880,2657.249,451.864,2657.244,451.849C2657.239,451.833,2657.234,451.818,2657.228,451.803C2657.222,451.789,2657.215,451.774,2657.208,451.760C2657.200,451.746,2657.192,451.732,2657.183,451.718C2657.174,451.705,2657.165,451.692,2657.155,451.680C2657.145,451.667,2657.134,451.655,2657.123,451.644C2657.112,451.633,2657.100,451.622,2657.088,451.612C2657.075,451.601,2657.063,451.592,2657.049,451.583C2657.036,451.574,2657.023,451.566,2657.009,451.558C2656.995,451.550,2656.980,451.544,2656.966,451.537C2656.951,451.531,2656.936,451.526,2656.921,451.521C2656.906,451.516,2656.890,451.513,2656.875,451.509C2656.859,451.506,2656.843,451.504,2656.828,451.502C2656.812,451.501,2656.796,451.500,2656.780,451.500L2655.227,451.500C2655.184,451.500,2655.141,451.506,2655.100,451.517C2654.297,450.097,2652.787,449.139,2651.056,449.139C2649.241,449.139,2647.669,450.192,2646.901,451.727C2646.498,451.114,2645.827,450.713,2645.068,450.713C2644.289,450.713,2643.604,451.135,2643.205,451.774C2642.445,450.213,2640.859,449.139,2639.026,449.139C2637.295,449.139,2635.785,450.097,2634.983,451.517C2634.941,451.506,2634.898,451.500,2634.855,451.500L2633.302,451.500C2633.286,451.500,2633.270,451.501,2633.255,451.502C2633.239,451.504,2633.223,451.506,2633.207,451.509C2633.192,451.513,2633.177,451.516,2633.161,451.521C2633.146,451.526,2633.131,451.531,2633.117,451.537C2633.102,451.544,2633.087,451.550,2633.073,451.558C2633.060,451.566,2633.046,451.574,2633.033,451.583C2633.020,451.592,2633.007,451.601,2632.995,451.612C2632.982,451.622,2632.970,451.633,2632.959,451.644C2632.948,451.655,2632.937,451.667,2632.927,451.680C2632.917,451.692,2632.908,451.705,2632.899,451.718C2632.890,451.732,2632.882,451.746,2632.874,451.760C2632.867,451.774,2632.860,451.789,2632.854,451.803C2632.848,451.818,2632.843,451.833,2632.838,451.849C2632.833,451.864,2632.830,451.880,2632.826,451.896C2632.823,451.911,2632.821,451.927,2632.819,451.943C2632.818,451.959,2632.817,451.976,2632.817,451.992L2632.817,451.992C2632.817,452.008,2632.818,452.024,2632.819,452.040C2632.821,452.056,2632.823,452.072,2632.826,452.088C2632.830,452.104,2632.833,452.119,2632.838,452.135C2632.843,452.150,2632.848,452.165,2632.854,452.180C2632.860,452.195,2632.867,452.210,2632.874,452.224C2632.882,452.238,2632.890,452.252,2632.899,452.265C2632.908,452.279,2632.917,452.291,2632.927,452.304C2632.937,452.316,2632.948,452.328,2632.959,452.340C2632.970,452.351,2632.982,452.362,2632.995,452.372C2633.007,452.382,2633.020,452.392,2633.033,452.401C2633.046,452.410,2633.060,452.418,2633.073,452.426C2633.087,452.433,2633.102,452.440,2633.117,452.446C2633.131,452.452,2633.146,452.458,2633.161,452.462C2633.177,452.467,2633.192,452.471,2633.207,452.474C2633.223,452.477,2633.239,452.480,2633.255,452.481C2633.270,452.483,2633.286,452.484,2633.302,452.484L2634.571,452.484C2634.440,452.919,2634.369,453.382,2634.369,453.861C2634.369,456.468,2636.454,458.582,2639.026,458.582C2641.598,458.582,2643.683,456.468,2643.683,453.861C2643.683,453.581,2643.659,453.307,2643.613,453.041C2643.629,452.180,2644.282,451.500,2645.068,451.500C2645.793,451.500,2646.404,452.078,2646.508,452.844C2646.437,453.171,2646.399,453.511,2646.399,453.861C2646.399,456.468,2648.484,458.582,2651.056,458.582ZZZZZZZM2651.056,457.795C2648.913,457.795,2647.175,456.034,2647.175,453.861C2647.175,451.688,2648.913,449.926,2651.056,449.926C2653.199,449.926,2654.937,451.688,2654.937,453.861C2654.937,456.034,2653.199,457.795,2651.056,457.795ZZZZZZZM2635.146,453.861C2635.146,456.034,2636.883,457.795,2639.026,457.795C2641.169,457.795,2642.907,456.034,2642.907,453.861C2642.907,451.688,2641.169,449.926,2639.026,449.926C2636.883,449.926,2635.146,451.688,2635.146,453.861ZZZZZZZ" fill-rule="evenodd" stroke="none" filter="[object Object]" style="fill:#252c2f;fill-opacity:1">
                  </path>
                </g>
              </g>
              <g id="shape-c19a0f4a-c023-80dc-8005-e8ac9f18011d">
                <g class="fills" id="fills-c19a0f4a-c023-80dc-8005-e8ac9f18011d">
                  <path d="M2647.563,461.336C2647.563,462.393,2646.369,463.107,2644.847,463.107C2643.325,463.107,2642.131,462.393,2642.131,461.336C2642.131,461.119,2642.315,460.943,2642.519,460.943C2642.769,460.943,2642.881,461.121,2642.907,461.336C2643.148,461.914,2643.744,462.264,2644.847,462.320C2645.950,462.264,2646.546,461.914,2646.787,461.336C2646.813,461.121,2646.925,460.943,2647.175,460.943C2647.379,460.943,2647.563,461.119,2647.563,461.336ZZZZZZZ" fill-rule="evenodd" stroke="none" style="fill:#000000;fill-opacity:0.6">
                  </path>
                </g>
              </g>
              <g id="shape-c19a0f4a-c023-80dc-8005-e8ac9f18011f">
                <g class="fills" id="fills-c19a0f4a-c023-80dc-8005-e8ac9f18011f">
                  <path d="M2638.190,441.252C2642.107,438.951,2645.986,439.327,2648.914,440.076C2651.843,440.826,2653.575,442.953,2655.061,446.100C2655.791,447.645,2656.224,449.472,2656.290,451.182C2656.316,451.853,2656.227,452.546,2656.049,453.192C2655.983,453.429,2655.631,454.252,2655.534,453.587C2655.501,453.366,2655.619,453.061,2655.631,452.826C2655.646,452.517,2655.630,452.205,2655.609,451.896C2655.570,451.321,2655.469,450.756,2655.289,450.207C2655.031,449.422,2654.703,448.571,2654.202,447.910C2652.960,446.271,2650.810,446.178,2649.103,445.277C2649.251,445.553,2649.822,446.000,2649.624,446.312C2649.487,446.527,2648.970,446.462,2648.723,446.455C2648.074,446.437,2647.421,446.322,2646.779,446.229C2645.767,446.083,2644.820,445.786,2643.868,445.425C2643.089,445.130,2642.198,444.856,2641.613,444.229C2640.668,445.222,2639.451,446.156,2638.236,446.787C2637.146,447.354,2635.388,447.637,2634.722,448.785C2633.933,450.146,2634.296,451.816,2634.055,453.290C2633.964,453.851,2633.755,453.838,2633.642,453.337C2633.448,452.485,2633.357,451.600,2633.418,450.725C2633.558,448.748,2634.273,443.554,2638.190,441.252ZZZZZZZ" fill-rule="evenodd" stroke="none" style="fill:#28354b;fill-opacity:1">
                  </path>
                </g>
              </g>
              <g id="shape-c19a0f4a-c023-80dc-8005-e8ac9f180116">
                <g class="fills" id="fills-c19a0f4a-c023-80dc-8005-e8ac9f180116">
                  <path d="M2639.414,472.156C2639.414,474.874,2641.760,477.077,2644.653,477.077C2647.546,477.077,2649.892,474.874,2649.892,472.156C2649.892,471.956,2649.879,471.759,2649.855,471.566L2656.203,471.566C2656.331,471.566,2656.460,471.569,2656.588,471.575C2656.717,471.582,2656.845,471.591,2656.973,471.604C2657.101,471.617,2657.228,471.633,2657.355,471.652C2657.482,471.671,2657.609,471.693,2657.735,471.719C2657.861,471.744,2657.986,471.773,2658.111,471.804C2658.236,471.836,2658.360,471.871,2658.483,471.909C2658.606,471.946,2658.728,471.987,2658.849,472.031C2658.970,472.075,2659.089,472.122,2659.208,472.172C2659.327,472.222,2659.444,472.275,2659.561,472.331C2659.677,472.386,2659.792,472.445,2659.905,472.506C2660.018,472.568,2660.130,472.632,2660.240,472.699C2660.350,472.766,2660.459,472.836,2660.566,472.908C2660.673,472.981,2660.778,473.056,2660.881,473.133C2660.984,473.211,2661.086,473.291,2661.185,473.374C2661.284,473.457,2661.382,473.542,2661.477,473.629C2661.572,473.717,2661.665,473.807,2661.756,473.899C2661.847,473.991,2661.935,474.086,2662.022,474.182C2662.108,474.279,2662.192,474.378,2662.273,474.478C2662.355,474.579,2662.434,474.682,2662.511,474.787C2662.587,474.891,2662.661,474.998,2662.733,475.106C2662.804,475.215,2662.873,475.325,2662.939,475.437C2663.005,475.549,2663.068,475.662,2663.129,475.777C2663.189,475.892,2663.247,476.008,2663.302,476.126C2663.357,476.244,2663.409,476.363,2663.458,476.484C2663.507,476.604,2663.554,476.726,2663.597,476.849C2663.640,476.971,2663.681,477.095,2663.718,477.220C2663.755,477.345,2663.789,477.470,2663.821,477.597C2663.852,477.723,2663.880,477.850,2663.905,477.978C2663.930,478.106,2663.952,478.235,2663.971,478.364C2663.990,478.493,2664.006,478.622,2664.018,478.752C2664.031,478.881,2664.040,479.011,2664.047,479.142C2664.053,479.272,2664.056,479.402,2664.056,479.533L2664.056,487.500L2625.250,487.500L2625.250,479.533C2625.250,479.402,2625.253,479.272,2625.260,479.142C2625.266,479.011,2625.275,478.881,2625.288,478.752C2625.300,478.622,2625.316,478.493,2625.335,478.364C2625.354,478.235,2625.376,478.106,2625.401,477.978C2625.426,477.850,2625.454,477.723,2625.485,477.597C2625.517,477.470,2625.551,477.345,2625.588,477.220C2625.625,477.095,2625.666,476.971,2625.709,476.849C2625.752,476.726,2625.799,476.604,2625.848,476.484C2625.897,476.363,2625.949,476.244,2626.004,476.126C2626.059,476.008,2626.117,475.892,2626.177,475.777C2626.238,475.662,2626.301,475.549,2626.367,475.437C2626.433,475.325,2626.502,475.215,2626.573,475.106C2626.645,474.998,2626.719,474.891,2626.795,474.787C2626.872,474.682,2626.951,474.579,2627.033,474.478C2627.114,474.378,2627.198,474.279,2627.284,474.182C2627.371,474.086,2627.459,473.991,2627.550,473.899C2627.641,473.807,2627.734,473.717,2627.829,473.629C2627.924,473.542,2628.022,473.457,2628.121,473.374C2628.220,473.291,2628.322,473.211,2628.425,473.133C2628.528,473.056,2628.633,472.981,2628.740,472.908C2628.847,472.836,2628.956,472.766,2629.066,472.699C2629.176,472.632,2629.288,472.568,2629.401,472.506C2629.515,472.445,2629.629,472.386,2629.745,472.331C2629.862,472.275,2629.979,472.222,2630.098,472.172C2630.217,472.122,2630.336,472.075,2630.457,472.031C2630.578,471.987,2630.700,471.946,2630.823,471.909C2630.946,471.871,2631.070,471.836,2631.195,471.804C2631.320,471.773,2631.445,471.744,2631.571,471.719C2631.697,471.693,2631.824,471.671,2631.951,471.652C2632.078,471.633,2632.205,471.617,2632.333,471.604C2632.461,471.591,2632.589,471.582,2632.718,471.575C2632.846,471.569,2632.975,471.566,2633.103,471.566L2639.451,471.566C2639.427,471.759,2639.414,471.956,2639.414,472.156ZZZZZZZ" fill-rule="evenodd" stroke="none" style="fill:#3c4f5c;fill-opacity:1">
                  </path>
                </g>
              </g>
              <g id="shape-c19a0f4a-c023-80dc-8005-e8ac9f180119" style="display:none">
                <g class="fills" id="fills-c19a0f4a-c023-80dc-8005-e8ac9f180119">
                  <path d="M2640.093,467.831L2640.093,471.473C2640.093,471.473,2639.705,473.661,2640.578,474.606C2641.186,475.263,2642.133,473.550,2642.133,473.550L2647.755,473.550C2647.755,473.550,2648.262,475.341,2648.922,474.210C2649.407,473.378,2649.407,471.473,2649.407,471.473L2649.407,467.831L2640.093,467.831ZZZZZZ" fill-rule="evenodd" stroke="none" style="fill:#d0c6ac;fill-opacity:1">
                  </path>
                </g>
              </g>
              <g id="shape-c19a0f4a-c023-80dc-8005-e8ac9f180118" style="display:none">
                <g class="fills" id="fills-c19a0f4a-c023-80dc-8005-e8ac9f180118">
                  <path d="M2647.369,475.759L2647.369,475.759ZZZZZZC2648.538,475.125,2649.310,474.105,2649.310,472.953C2649.310,471.058,2647.225,469.522,2644.653,469.522C2642.081,469.522,2639.996,471.058,2639.996,472.953C2639.996,474.105,2640.768,475.125,2641.952,475.747L2641.937,475.759L2642.131,476.383L2641.242,476.317L2640.146,477.198C2638.859,476.289,2638.056,475.003,2638.056,473.576C2638.056,470.821,2641.053,468.587,2644.750,468.587C2648.447,468.587,2651.444,470.821,2651.444,473.576C2651.444,475.041,2650.598,476.358,2649.250,477.270L2648.064,476.317L2647.175,476.383L2647.369,475.759ZZZZZZZM2641.160,476.311L2641.160,476.311ZL2641.937,475.759L2641.160,476.311ZZZZZZZ" fill-rule="evenodd" stroke="none" style="fill:#f2f2f2;fill-opacity:1">
                  </path>
                </g>
              </g>
            </g>
          </g>
        </g>
      </g>
    </g>
  </g>
</svg>